<svg xmlns="http://www.w3.org/2000/svg" fill-rule="evenodd" clip-rule="evenodd" stroke-linejoin="round" stroke-miterlimit="1.414" viewBox="5.21 5.18 64.9 5.72"><path fill="none" d="M0 0h74.88v15.36H0z"></path><path d="M6.39 8.778l-.42.954h-.756l1.848-4.194h.756l1.848 4.194H8.91l-.42-.954h-2.1zm1.812-.654L7.44 6.396l-.762 1.728h1.524zm3.624-.954c-.332 0-.582.108-.75.324-.168.216-.252.506-.252.87v1.368h-.672V6.54h.672v.642c.108-.2.255-.364.441-.492s.383-.194.591-.198l.006.678h-.036zm2.124 2.61c-.444 0-.826-.151-1.146-.453-.32-.302-.48-.697-.48-1.185 0-.488.167-.885.501-1.191a1.742 1.742 0 0 1 1.221-.459c.48 0 .886.166 1.218.498l-.396.486c-.276-.24-.554-.36-.834-.36-.28 0-.523.093-.729.279a.926.926 0 0 0-.309.72c0 .294.102.543.306.747.204.204.455.306.753.306s.579-.136.843-.408l.396.432c-.388.392-.836.588-1.344.588zm4.29-1.002c0 .304-.11.547-.33.729-.22.182-.502.273-.846.273-.232 0-.473-.042-.723-.126a2.172 2.172 0 0 1-.663-.354l.324-.522c.372.28.732.42 1.08.42a.563.563 0 0 0 .36-.105.327.327 0 0 0 .132-.267c0-.16-.212-.304-.636-.432a.736.736 0 0 0-.072-.024c-.664-.18-.996-.48-.996-.9 0-.296.115-.533.345-.711.23-.178.529-.267.897-.267s.716.108 1.044.324l-.252.498a1.503 1.503 0 0 0-.846-.258c-.16 0-.29.029-.39.087a.283.283 0 0 0-.15.261c0 .104.052.18.156.228.072.036.173.07.303.102.13.032.245.064.345.096.1.032.197.068.291.108.094.04.195.096.303.168.216.144.324.368.324.672zm1.434.954h-.672V6.54h.672v3.192zm-.63-3.828a.41.41 0 0 1-.126-.3.41.41 0 0 1 .126-.3.41.41 0 0 1 .3-.126.41.41 0 0 1 .3.126.41.41 0 0 1 .126.3.41.41 0 0 1-.126.3.41.41 0 0 1-.3.126.41.41 0 0 1-.3-.126zm2.274 2.1v1.728h-.672V6.54h.672v.582c.108-.196.257-.35.447-.462a1.19 1.19 0 0 1 .615-.168c.36 0 .651.11.873.33.222.22.333.538.333.954v1.956h-.672V7.98c0-.588-.244-.882-.732-.882a.88.88 0 0 0-.606.231c-.172.154-.258.379-.258.675z" fill="#777777" fill-rule="nonzero"></path><path d="M27.708 8.556l.936-3.018h.636l.936 3.018 1.056-3.018h.762L30.57 9.732h-.702l-.882-2.874h-.048l-.882 2.874h-.702L25.89 5.538h.762l1.056 3.018zm6.036-2.064c.436 0 .798.12 1.086.363.288.242.434.557.438.945l.006.012-2.328.978c.208.256.49.384.849.384a1.1 1.1 0 0 0 .885-.42l.396.438c-.38.392-.828.588-1.344.588-.452 0-.84-.15-1.164-.45-.324-.3-.486-.696-.486-1.188 0-.34.084-.639.252-.897a1.57 1.57 0 0 1 .624-.57c.248-.122.51-.183.786-.183zM32.73 8.154c0 .052.002.09.006.114l1.77-.762c-.136-.264-.378-.396-.726-.396-.264 0-.505.092-.723.276-.218.184-.327.44-.327.768zm4.644-1.662c.428 0 .794.148 1.098.444.304.296.456.69.456 1.182s-.151.892-.453 1.2c-.302.308-.654.462-1.056.462s-.763-.176-1.083-.528v.48h-.672V5.28h.672v1.818c.264-.404.61-.606 1.038-.606zm-1.05 1.65c0 .304.092.553.276.747a.891.891 0 0 0 .672.291.954.954 0 0 0 .69-.288c.196-.192.294-.44.294-.747 0-.306-.096-.56-.288-.762a.919.919 0 0 0-.69-.303.881.881 0 0 0-.678.303 1.083 1.083 0 0 0-.276.759zm6.096-1.956v3.546h-.708V6.186H40.44v-.648h3.252v.648H42.42zm3.096.306c.436 0 .798.12 1.086.363.288.242.434.557.438.945l.006.012-2.328.978c.208.256.49.384.849.384a1.1 1.1 0 0 0 .885-.42l.396.438c-.38.392-.828.588-1.344.588-.452 0-.84-.15-1.164-.45-.324-.3-.486-.696-.486-1.188 0-.34.084-.639.252-.897a1.57 1.57 0 0 1 .624-.57c.248-.122.51-.183.786-.183zm-1.014 1.662c0 .052.002.09.006.114l1.77-.762c-.136-.264-.378-.396-.726-.396-.264 0-.505.092-.723.276-.218.184-.327.44-.327.768zm3.606-.15v1.728h-.672V6.54h.672v.582c.096-.196.241-.35.435-.462.194-.112.403-.168.627-.168.504 0 .846.208 1.026.624.316-.416.71-.624 1.182-.624.36 0 .651.11.873.33.222.22.333.538.333.954v1.956h-.672V7.98c0-.588-.244-.882-.732-.882a.887.887 0 0 0-.597.22c-.17.145-.259.358-.267.638v1.776h-.672V7.98c0-.304-.054-.527-.162-.669-.108-.142-.278-.213-.51-.213a.879.879 0 0 0-.606.231c-.172.154-.258.38-.258.675zm6.822-1.512c.428 0 .794.148 1.098.444.304.296.456.69.456 1.182s-.151.892-.453 1.2c-.302.308-.654.462-1.056.462s-.763-.176-1.083-.528v1.644h-.672V6.54h.672v.558c.264-.404.61-.606 1.038-.606zm-1.05 1.65c0 .304.092.553.276.747a.891.891 0 0 0 .672.291.954.954 0 0 0 .69-.288c.196-.192.294-.44.294-.747 0-.306-.096-.56-.288-.762a.919.919 0 0 0-.69-.303.881.881 0 0 0-.678.303 1.083 1.083 0 0 0-.276.759zm4.668 1.362c-.16.184-.384.276-.672.276-.288 0-.519-.086-.693-.258-.174-.172-.26-.426-.26-.762V5.538h.671v3.144c0 .32.12.48.36.48.14 0 .24-.05.3-.15l.294.492zm1.47.276c-.404 0-.756-.152-1.056-.456-.3-.304-.45-.704-.45-1.2s.154-.892.462-1.188a1.524 1.524 0 0 1 1.092-.444c.42 0 .766.2 1.038.6V6.54h.672v3.192h-.672V9.21a1.28 1.28 0 0 1-.489.423 1.335 1.335 0 0 1-.597.147zm-.834-1.629c0 .306.098.555.294.747a.954.954 0 0 0 .69.288.892.892 0 0 0 .672-.29c.184-.195.276-.444.276-.748s-.092-.558-.276-.762a.878.878 0 0 0-.678-.306.914.914 0 0 0-.69.306c-.192.204-.288.46-.288.765zM63.09 7.08V8.7c0 .152.04.273.12.363.08.09.192.135.336.135.144 0 .282-.07.414-.21l.276.474a1.146 1.146 0 0 1-.783.318c-.286 0-.53-.099-.732-.297-.202-.198-.303-.465-.303-.801V5.538h.672V6.54h.84v.54h-.84zm2.832-.588c.436 0 .798.12 1.086.363.288.242.434.557.438.945l.006.012-2.328.978c.208.256.49.384.849.384a1.1 1.1 0 0 0 .885-.42l.396.438c-.38.392-.828.588-1.344.588-.452 0-.84-.15-1.164-.45-.324-.3-.486-.696-.486-1.188 0-.34.084-.639.252-.897a1.57 1.57 0 0 1 .624-.57c.248-.122.51-.183.786-.183zm-1.014 1.662c0 .052.002.09.006.114l1.77-.762c-.136-.264-.378-.396-.726-.396-.264 0-.505.092-.723.276-.218.184-.327.44-.327.768zm5.208.624c0 .304-.11.547-.33.73-.22.181-.502.272-.846.272-.232 0-.473-.042-.723-.126a2.173 2.173 0 0 1-.663-.354l.324-.522c.372.28.732.42 1.08.42a.564.564 0 0 0 .36-.105.328.328 0 0 0 .132-.267c0-.16-.212-.304-.636-.432a.79.79 0 0 0-.072-.024c-.664-.18-.996-.48-.996-.9a.85.85 0 0 1 .345-.71c.23-.179.529-.268.897-.268s.716.108 1.044.324l-.252.498a1.504 1.504 0 0 0-.846-.258.77.77 0 0 0-.39.087.283.283 0 0 0-.15.261c0 .104.052.18.156.228a1.5 1.5 0 0 0 .303.102c.13.032.245.064.345.096.1.032.197.068.291.108.094.04.195.096.303.168.216.144.324.368.324.672z" fill="#aaaaaa" fill-rule="nonzero"></path></svg>
