<svg xmlns="http://www.w3.org/2000/svg" xmlns:xlink="http://www.w3.org/1999/xlink" version="1.1" xml:space="preserve" style="fill-rule:evenodd;clip-rule:evenodd;stroke-linejoin:round;stroke-miterlimit:1.41421;" viewBox="4.8 6.6 28.8 25.2"><rect id="vikpe" x="0" y="0" width="38.4" height="38.4" style="fill:none;"/><g id="V"><path d="M10.56,16.68l5.76,0l-2.88,5.04l-2.88,-5.04Z" style="fill:#ed0d94;"/><path d="M30.72,11.64l-5.76,0l2.88,5.04l2.88,-5.04Z" style="fill:#ed0d94;"/><path d="M33.6,6.6l-5.76,0l2.88,5.04l2.88,-5.04Z" style="fill:#ed0d94;"/><path d="M22.08,16.68l5.76,0l-2.88,-5.04l-2.88,5.04Z" style="fill:#ed0d94;"/><path d="M27.84,16.68l-5.76,0l2.88,5.04l2.88,-5.04Z" style="fill:#ed0d94;"/><path d="M19.2,21.72l5.76,0l-2.88,-5.04l-2.88,5.04Z" style="fill:#ed0d94;"/><path d="M13.44,11.64l-5.76,0l2.88,-5.04l2.88,5.04Z" style="fill:#ed0d94;"/><path d="M16.32,16.68l-5.76,0l2.88,-5.04l2.88,5.04Z" style="fill:#ed0d94;"/><path d="M19.2,21.72l-5.76,0l2.88,-5.04l2.88,5.04Z" style="fill:#ed0d94;"/><path d="M13.44,11.64l-5.76,0l2.88,-5.04l2.88,5.04Z" style="fill:#ed0d94;"/><path d="M30.72,11.64l-5.76,0l2.88,-5.04l2.88,5.04Z" style="fill:#ed0d94;"/><path d="M19.2,21.72l5.76,0l-2.88,5.04l-2.88,-5.04Z" style="fill:#ed0d94;"/><path d="M7.68,11.64l5.76,0l-2.88,5.04l-2.88,-5.04Z" style="fill:#ed0d94;"/><path d="M16.32,26.76l5.76,0l-2.88,5.04l-2.88,-5.04Z" style="fill:#ed0d94;"/><path d="M22.08,26.76l-5.76,0l2.88,-5.04l2.88,5.04Z" style="fill:#ed0d94;"/><path d="M13.44,21.72l5.76,0l-2.88,5.04l-2.88,-5.04Z" style="fill:#ed0d94;"/><path d="M4.8,6.6l5.76,0l-2.88,5.04l-2.88,-5.04Z" style="fill:#ed0d94;"/><path d="M30.72,11.64l-5.76,0l2.88,-5.04l2.88,5.04Z" style="fill:#ed0d94;"/></g></svg>