<svg xmlns="http://www.w3.org/2000/svg" fill-rule="evenodd" clip-rule="evenodd" stroke-linejoin="round" stroke-miterlimit="1.414" viewBox="5.21 5.18 18.37 4.6"><path fill="none" d="M0 0h88.32v15.36H0z"/><path d="m6.39 8.778-.42.954h-.756l1.848-4.194h.756l1.848 4.194H8.91l-.42-.954h-2.1zm1.812-.654L7.44 6.396l-.762 1.728h1.524zm3.624-.954c-.332 0-.582.108-.75.324-.168.216-.252.506-.252.87v1.368h-.672V6.54h.672v.642c.108-.2.255-.364.441-.492s.383-.194.591-.198l.006.678h-.036zm2.124 2.61c-.444 0-.826-.151-1.146-.453-.32-.302-.48-.697-.48-1.185 0-.488.167-.885.501-1.191a1.742 1.742 0 0 1 1.221-.459c.48 0 .886.166 1.218.498l-.396.486c-.276-.24-.554-.36-.834-.36-.28 0-.523.093-.729.279a.926.926 0 0 0-.309.72c0 .294.102.543.306.747.204.204.455.306.753.306s.579-.136.843-.408l.396.432c-.388.392-.836.588-1.344.588zm4.29-1.002c0 .304-.11.547-.33.729-.22.182-.502.273-.846.273-.232 0-.473-.042-.723-.126a2.172 2.172 0 0 1-.663-.354l.324-.522c.372.28.732.42 1.08.42a.563.563 0 0 0 .36-.105.327.327 0 0 0 .132-.267c0-.16-.212-.304-.636-.432a.736.736 0 0 0-.072-.024c-.664-.18-.996-.48-.996-.9 0-.296.115-.533.345-.711.23-.178.529-.267.897-.267s.716.108 1.044.324l-.252.498a1.503 1.503 0 0 0-.846-.258c-.16 0-.29.029-.39.087a.283.283 0 0 0-.15.261c0 .104.052.18.156.228.072.036.173.07.303.102.13.032.245.064.345.096.1.032.197.068.291.108.094.04.195.096.303.168.216.144.324.368.324.672zm1.434.954h-.672V6.54h.672v3.192zm-.63-3.828a.41.41 0 0 1-.126-.3.41.41 0 0 1 .126-.3.41.41 0 0 1 .3-.126.41.41 0 0 1 .3.126.41.41 0 0 1 .126.3.41.41 0 0 1-.126.3.41.41 0 0 1-.3.126.41.41 0 0 1-.3-.126zm2.274 2.1v1.728h-.672V6.54h.672v.582c.108-.196.257-.35.447-.462a1.19 1.19 0 0 1 .615-.168c.36 0 .651.11.873.33.222.22.333.538.333.954v1.956h-.672V7.98c0-.588-.244-.882-.732-.882a.88.88 0 0 0-.606.231c-.172.154-.258.379-.258.675z" fill="#04bff1" fill-rule="nonzero"/></svg>