<svg xmlns="http://www.w3.org/2000/svg" xml:space="preserve" style="fill-rule:evenodd;clip-rule:evenodd;stroke-linejoin:round;stroke-miterlimit:1.41421" viewBox="4.8 6.6 28.8 25.2"><path style="fill:none" d="M0 0h38.4v38.4H0z"/><path d="M10.56 16.68h5.76l-2.88 5.04-2.88-5.04zm20.16-5.04h-5.76l2.88 5.04 2.88-5.04zM33.6 6.6h-5.76l2.88 5.04L33.6 6.6zM22.08 16.68h5.76l-2.88-5.04-2.88 5.04zm5.76 0h-5.76l2.88 5.04 2.88-5.04z" style="fill:#ed0d94"/><path d="M19.2 21.72h5.76l-2.88-5.04-2.88 5.04zm-5.76-10.08H7.68l2.88-5.04 2.88 5.04zm2.88 5.04h-5.76l2.88-5.04 2.88 5.04zm2.88 5.04h-5.76l2.88-5.04 2.88 5.04z" style="fill:#ed0d94"/><path d="M13.44 11.64H7.68l2.88-5.04 2.88 5.04zm17.28 0h-5.76l2.88-5.04 2.88 5.04zM19.2 21.72h5.76l-2.88 5.04-2.88-5.04zM7.68 11.64h5.76l-2.88 5.04-2.88-5.04zm8.64 15.12h5.76L19.2 31.8l-2.88-5.04z" style="fill:#ed0d94"/><path d="M22.08 26.76h-5.76l2.88-5.04 2.88 5.04zm-8.64-5.04h5.76l-2.88 5.04-2.88-5.04zM4.8 6.6h5.76l-2.88 5.04L4.8 6.6zm25.92 5.04h-5.76l2.88-5.04 2.88 5.04z" style="fill:#ed0d94"/></svg>